<?xml version="1.0" encoding="UTF-8" ?>
<!DOCTYPE svg PUBLIC "-//W3C//DTD SVG 1.1//EN" "http://www.w3.org/Graphics/SVG/1.1/DTD/svg11.dtd">
<svg width="571pt" height="734pt" viewBox="0 0 571 734" version="1.1" xmlns="http://www.w3.org/2000/svg">
<g id="#ffffffff">
<path fill="#ffffff" opacity="1.00" d=" M 411.58 0.00 L 570.29 0.00 C 570.09 59.85 570.37 119.71 570.22 179.56 C 566.01 171.18 562.13 162.61 557.46 154.47 C 557.14 154.17 556.49 153.58 556.17 153.28 C 554.30 155.83 552.49 158.42 551.07 161.25 C 544.16 174.99 537.40 188.91 533.14 203.74 C 545.50 204.32 557.92 204.10 570.23 205.43 C 570.87 215.80 570.18 226.15 569.36 236.48 C 551.14 238.02 532.91 239.53 514.76 241.76 C 510.96 250.96 507.12 260.16 504.16 269.67 C 526.21 268.44 548.26 266.90 570.34 266.14 C 570.13 390.40 570.32 514.68 570.20 638.95 C 569.93 642.59 569.64 646.24 570.15 649.89 C 569.47 667.49 569.86 685.13 569.68 702.75 C 518.17 704.59 466.75 708.28 415.27 710.71 C 389.06 658.45 359.96 607.70 333.70 555.47 C 318.31 526.89 303.72 497.84 286.90 470.05 C 266.71 503.51 250.05 538.90 232.87 573.95 C 208.30 624.09 182.23 673.51 159.37 724.48 C 135.28 726.39 111.18 727.95 87.06 729.32 C 65.21 730.33 43.42 732.26 21.56 733.07 L 29.04 734.00 L 0.00 734.00 L 0.00 570.30 C 0.22 561.63 0.26 552.95 0.46 544.28 C 6.58 551.75 12.15 559.65 18.09 567.26 C 27.06 549.60 35.43 531.56 42.05 512.88 C 28.09 512.50 14.15 513.15 0.21 513.64 C 0.14 511.95 0.06 510.30 0.00 508.63 L 0.00 481.38 C 20.37 478.69 40.98 478.59 61.43 476.79 C 64.97 466.47 68.22 456.06 71.10 445.54 C 47.37 445.64 23.70 447.42 0.00 448.43 L 0.00 18.83 C 52.38 15.16 104.79 11.99 157.28 10.45 C 202.21 87.93 241.75 168.35 284.80 246.87 C 297.18 234.11 304.54 217.70 311.95 201.81 C 318.44 188.41 325.20 175.15 331.72 161.77 C 350.74 123.46 369.22 84.88 389.16 47.05 C 397.07 31.58 404.29 15.77 411.58 0.00 M 498.93 101.09 C 488.86 101.20 478.71 102.30 468.60 102.54 C 426.30 177.18 387.22 253.57 347.54 329.61 C 344.09 336.49 340.19 343.15 337.06 350.19 C 335.05 354.70 334.39 360.38 337.64 364.50 C 361.04 404.70 381.99 446.39 407.92 485.08 C 414.30 496.83 419.63 509.13 425.78 521.01 C 434.33 537.92 444.25 554.48 457.98 567.73 C 459.17 567.66 460.37 567.59 461.58 567.53 C 461.60 470.94 461.59 374.35 461.59 277.76 C 452.90 278.27 444.20 278.66 435.51 279.25 C 435.13 276.85 436.83 274.93 437.67 272.84 C 456.35 233.70 476.15 195.10 496.49 156.80 C 506.61 138.20 517.89 120.00 524.64 99.80 C 516.08 100.35 507.46 100.25 498.93 101.09 M 118.33 149.60 C 116.15 167.99 117.00 186.56 116.85 205.05 C 117.33 230.00 117.10 255.06 117.09 280.01 C 116.37 332.46 116.99 384.95 117.84 437.42 C 118.27 438.53 119.53 438.88 120.44 439.51 C 126.71 443.07 133.03 446.54 139.38 449.94 C 126.78 470.48 114.81 491.44 104.13 513.06 C 87.44 547.89 65.73 580.22 51.10 616.04 C 69.86 615.49 88.86 617.27 107.40 613.37 C 114.33 602.97 119.83 591.72 125.40 580.57 C 162.54 508.77 201.16 437.73 237.88 365.72 C 239.88 359.87 235.50 354.63 233.08 349.68 C 203.91 298.24 176.32 245.90 145.41 195.47 C 138.17 179.23 130.25 162.99 118.33 149.60 Z" />
</g>
</svg>
